<svg xmlns="http://www.w3.org/2000/svg" xmlns:xlink="http://www.w3.org/1999/xlink" version="1.1" width="256" height="256" viewBox="0 0 256 256" xml:space="preserve">

<defs>
</defs>
<g style="stroke: none; stroke-width: 0; stroke-dasharray: none; stroke-linecap: butt; stroke-linejoin: miter; stroke-miterlimit: 10; fill: none; fill-rule: nonzero; opacity: 1;" transform="translate(1.4065934065934016 1.4065934065934016) scale(2.81 2.81)" >
	<path d="M 48.913 21.423 l -1.157 0.001 c -0.354 -0.617 -1.012 -1.039 -1.773 -1.039 c -0.762 0 -1.421 0.423 -1.775 1.042 l -9.004 0.008 c -0.365 -0.705 -1.093 -1.193 -1.94 -1.193 c -1.209 0 -2.193 0.984 -2.193 2.193 c 0 0.606 0.247 1.155 0.646 1.552 l -3.991 12.552 h -0.879 c -0.552 0 -1 0.448 -1 1 s 0.448 1 1 1 h 12.835 c 0.552 0 1 -0.448 1 -1 s -0.448 -1 -1 -1 h -0.879 l -3.992 -12.552 c 0.161 -0.16 0.289 -0.35 0.394 -0.553 l 8.993 -0.008 c 0.185 0.331 0.455 0.603 0.785 0.789 v 17.977 h -1.455 c -2.863 0 -5.191 2.329 -5.191 5.192 v 0.379 h -1.003 c -0.552 0 -1 0.447 -1 1 s 0.448 1 1 1 h 2.003 h 13.292 h 2.003 c 0.553 0 1 -0.447 1 -1 s -0.447 -1 -1 -1 h -1.003 v -0.379 c 0 -2.863 -2.329 -5.192 -5.192 -5.192 h -1.454 V 24.217 c 0.331 -0.187 0.603 -0.46 0.787 -0.793 l 1.141 -0.001 l 7.85 0.013 c 0.105 0.203 0.233 0.393 0.393 0.553 l -3.991 12.552 h -0.879 c -0.553 0 -1 0.448 -1 1 s 0.447 1 1 1 h 1.607 c 0.001 0 0.002 0 0.003 0 s 0.002 0 0.003 0 h 9.608 c 0.001 0 0.002 0 0.003 0 s 0.002 0 0.003 0 h 1.607 c 0.553 0 1 -0.448 1 -1 s -0.447 -1 -1 -1 H 64.24 l -3.991 -12.552 c 0.398 -0.397 0.645 -0.946 0.645 -1.552 c 0 -1.209 -0.984 -2.193 -2.193 -2.193 c -0.847 0 -1.574 0.488 -1.939 1.192 L 48.913 21.423 M 51.629 47.386 v 0.379 H 40.337 v -0.379 c 0 -1.76 1.432 -3.192 3.191 -3.192 h 4.908 C 50.197 44.194 51.629 45.625 51.629 47.386 z M 29.824 36.541 l 3.44 -10.817 l 3.44 10.817 H 29.824 z M 58.702 25.723 l 3.44 10.818 h -6.879 L 58.702 25.723 z" style="stroke: none; stroke-width: 1; stroke-dasharray: none; stroke-linecap: butt; stroke-linejoin: miter; stroke-miterlimit: 10; fill: rgb(255,255,255); fill-rule: nonzero; opacity: 1;" transform=" matrix(1 0 0 1 0 0) " stroke-linecap="round" />
	<path d="M 81.58 0 H 15.935 C 11.24 0 7.42 3.82 7.42 8.515 v 71.635 v 1.336 v 1.336 C 7.42 86.779 10.641 90 14.6 90 h 66.98 c 0.553 0 1 -0.447 1 -1 V 73.971 V 1 C 82.58 0.448 82.133 0 81.58 0 z M 9.42 8.515 C 9.42 4.922 12.343 2 15.935 2 H 80.58 v 70.971 H 14.6 c -2.035 0 -3.871 0.855 -5.179 2.221 V 8.515 z M 25.659 74.971 h 12.636 v 7.299 l -5.851 -3.089 c -0.292 -0.154 -0.642 -0.154 -0.934 0 l -5.851 3.089 V 74.971 z M 80.58 88 H 14.6 c -2.856 0 -5.179 -2.323 -5.179 -5.179 v -1.336 v -1.336 c 0 -2.855 2.323 -5.179 5.179 -5.179 h 9.06 v 8.957 c 0 0.351 0.184 0.676 0.484 0.856 c 0.299 0.181 0.671 0.191 0.983 0.028 l 6.851 -3.616 l 6.851 3.616 c 0.146 0.077 0.307 0.115 0.467 0.115 c 0.179 0 0.358 -0.048 0.516 -0.144 c 0.3 -0.181 0.484 -0.506 0.484 -0.856 v -8.957 H 80.58 V 88 z" style="stroke: none; stroke-width: 1; stroke-dasharray: none; stroke-linecap: butt; stroke-linejoin: miter; stroke-miterlimit: 10; fill: rgb(255,255,255); fill-rule: nonzero; opacity: 1;" transform=" matrix(1 0 0 1 0 0) " stroke-linecap="round" />
</g>
</svg>