<svg xmlns="http://www.w3.org/2000/svg" xmlns:xlink="http://www.w3.org/1999/xlink" version="1.1" width="256" height="256" viewBox="0 0 256 256" xml:space="preserve">

<defs>
</defs>
<g style="stroke: none; stroke-width: 0; stroke-dasharray: none; stroke-linecap: butt; stroke-linejoin: miter; stroke-miterlimit: 10; fill: none; fill-rule: nonzero; opacity: 1;" transform="translate(1.4065934065934016 1.4065934065934016) scale(2.81 2.81)" >
	<path d="M 45 20.659 L 45 20.659 c -4.686 0 -8.484 -3.798 -8.484 -8.484 V 9.484 C 36.516 4.798 40.314 1 45 1 h 0 c 4.685 0 8.484 3.798 8.484 8.484 v 2.691 C 53.484 16.86 49.686 20.659 45 20.659 z" style="stroke: none; stroke-width: 1; stroke-dasharray: none; stroke-linecap: butt; stroke-linejoin: miter; stroke-miterlimit: 10; fill: rgb(0,115,53); fill-rule: nonzero; opacity: 1;" transform=" matrix(1 0 0 1 0 0) " stroke-linecap="round" />
	<path d="M 45 21.659 c -5.229 0 -9.484 -4.254 -9.484 -9.484 V 9.484 C 35.516 4.254 39.771 0 45 0 s 9.483 4.254 9.483 9.484 v 2.691 C 54.483 17.404 50.229 21.659 45 21.659 z M 45 2 c -4.126 0 -7.484 3.357 -7.484 7.484 v 2.691 c 0 4.126 3.357 7.484 7.484 7.484 c 4.126 0 7.483 -3.357 7.483 -7.484 V 9.484 C 52.483 5.357 49.126 2 45 2 z" style="stroke: none; stroke-width: 1; stroke-dasharray: none; stroke-linecap: butt; stroke-linejoin: miter; stroke-miterlimit: 10; fill: rgb(0,115,53); fill-rule: nonzero; opacity: 1;" transform=" matrix(1 0 0 1 0 0) " stroke-linecap="round" />
	<path d="M 35.877 36.973 c -3.411 0 -6.591 -0.987 -9.27 -2.692 c -5.92 -3.767 -8.725 -10.945 -7.398 -17.835 l 1.805 -9.374 c 0.332 -1.726 1.842 -2.973 3.6 -2.973 h 0 c 2.025 0 3.666 1.641 3.666 3.666 v 8.283 c 0 5.403 4.38 9.783 9.783 9.783 h 13.876 c 5.403 0 9.783 -4.38 9.783 -9.783 V 7.766 c 0 -2.025 1.641 -3.666 3.666 -3.666 h 0 c 1.757 0 3.268 1.247 3.6 2.973 l 1.805 9.374 c 1.326 6.89 -1.479 14.068 -7.398 17.835 c -2.679 1.705 -5.859 2.692 -9.27 2.692 h 0 l -1 22.831 l -1.972 25.723 C 50.978 87.493 49.333 89 47.36 89 h -4.72 c -1.973 0 -3.618 -1.507 -3.791 -3.472 l -1.972 -25.723 L 35.877 36.973" style="stroke: none; stroke-width: 1; stroke-dasharray: none; stroke-linecap: butt; stroke-linejoin: miter; stroke-miterlimit: 10; fill: rgb(0,115,53); fill-rule: nonzero; opacity: 1;" transform=" matrix(1 0 0 1 0 0) " stroke-linecap="round" />
	<path d="M 47.36 90 H 42.64 c -2.509 0 -4.567 -1.885 -4.787 -4.385 l -1.973 -25.734 l -0.961 -21.932 c -3.147 -0.164 -6.188 -1.131 -8.848 -2.824 c -6.115 -3.891 -9.267 -11.473 -7.844 -18.867 l 1.805 -9.374 c 0.422 -2.193 2.35 -3.784 4.582 -3.784 c 2.573 0 4.666 2.093 4.666 4.666 v 8.283 c 0 4.843 3.94 8.783 8.783 8.783 h 13.875 c 4.843 0 8.783 -3.94 8.783 -8.783 V 7.766 c 0 -2.573 2.093 -4.666 4.666 -4.666 c 2.233 0 4.16 1.591 4.582 3.784 l 1.805 9.374 c 1.424 7.394 -1.729 14.976 -7.844 18.867 c -2.66 1.692 -5.701 2.66 -8.849 2.824 l -0.959 21.9 l -1.974 25.755 C 51.928 88.115 49.87 90 47.36 90 z M 24.613 5.1 c -1.276 0 -2.377 0.909 -2.618 2.162 l -1.805 9.374 c -1.27 6.596 1.525 13.348 6.953 16.802 c 2.608 1.659 5.627 2.536 8.733 2.536 c 0.535 0 0.976 0.421 0.999 0.956 l 1 22.831 l 1.97 25.69 C 39.973 86.899 41.175 88 42.64 88 h 4.721 c 1.465 0 2.667 -1.101 2.795 -2.561 l 1.971 -25.711 l 0.998 -22.799 c 0.023 -0.535 0.464 -0.956 0.999 -0.956 c 3.105 0 6.125 -0.877 8.732 -2.536 c 5.43 -3.455 8.224 -10.207 6.953 -16.802 l -1.805 -9.374 C 67.764 6.009 66.662 5.1 65.387 5.1 c -1.47 0 -2.666 1.196 -2.666 2.666 v 8.283 c 0 5.946 -4.837 10.783 -10.783 10.783 H 38.062 c -5.946 0 -10.783 -4.837 -10.783 -10.783 V 7.766 C 27.279 6.295 26.083 5.1 24.613 5.1 z" style="stroke: none; stroke-width: 1; stroke-dasharray: none; stroke-linecap: butt; stroke-linejoin: miter; stroke-miterlimit: 10; fill: rgb(0,115,53); fill-rule: nonzero; opacity: 1;" transform=" matrix(1 0 0 1 0 0) " stroke-linecap="round" />
</g>
</svg>